<?xml version="1.0" standalone="no"?>
<!DOCTYPE svg PUBLIC "-//W3C//DTD SVG 20010904//EN"
 "http://www.w3.org/TR/2001/REC-SVG-20010904/DTD/svg10.dtd">
<svg version="1.0" xmlns="http://www.w3.org/2000/svg"
 width="708.000000pt" height="708.000000pt" viewBox="0 0 708.000000 708.000000"
 preserveAspectRatio="xMidYMid meet">
<metadata>
Created by potrace 1.14, written by Peter Selinger 2001-2017
</metadata>
<g transform="translate(0.000000,708.000000) scale(0.100000,-0.100000)"
fill="#000000" stroke="none">
<path d="M3287 7057 c-3 -8 11 -34 30 -58 51 -64 100 -175 129 -286 20 -80 24
-118 22 -202 l-3 -105 -42 56 c-55 73 -167 181 -245 236 -90 64 -248 137 -358
167 -109 29 -133 31 -149 11 -10 -12 0 -27 49 -82 127 -140 227 -375 218 -514
l-3 -47 -84 48 c-167 96 -366 161 -501 163 -71 1 -75 0 -78 -22 -3 -17 15 -43
68 -99 55 -59 83 -100 120 -177 55 -116 73 -183 73 -275 0 -74 -20 -131 -61
-174 -35 -37 -64 -52 -142 -72 -122 -32 -191 -81 -238 -170 -22 -42 -27 -63
-27 -130 0 -72 3 -86 34 -143 69 -127 204 -220 365 -250 47 -9 86 -19 86 -22
0 -3 -22 -22 -48 -43 -69 -52 -241 -226 -330 -332 -42 -49 -110 -142 -151
-205 -41 -63 -114 -160 -161 -216 -372 -433 -650 -939 -765 -1394 -28 -112
-31 -146 -11 -153 21 -8 53 19 90 77 38 60 166 209 173 202 2 -2 -5 -23 -18
-47 -57 -113 -123 -349 -156 -559 -18 -121 -26 -527 -10 -582 12 -46 34 -33
51 30 43 155 132 354 210 467 l41 60 7 -135 c11 -217 67 -395 171 -536 35 -48
45 -72 56 -134 41 -237 161 -484 336 -693 87 -103 91 -99 98 96 3 89 13 200
22 247 20 107 56 240 64 240 4 0 22 -33 41 -72 48 -100 152 -255 247 -368 153
-182 297 -304 676 -574 150 -106 299 -214 331 -240 58 -45 61 -46 132 -46 l73
0 78 59 c371 281 649 593 813 911 l53 104 28 -32 c46 -51 63 -128 62 -277 -1
-71 -8 -177 -17 -234 -9 -57 -14 -106 -12 -108 8 -8 26 27 59 117 85 230 127
448 127 661 0 53 10 156 22 230 29 185 32 528 4 669 -32 162 -32 148 0 155 63
14 182 59 240 91 184 102 319 278 375 489 26 98 30 300 7 380 -13 44 -22 56
-89 106 -102 77 -176 161 -216 245 -30 64 -63 188 -52 198 7 7 153 -21 253
-48 118 -32 218 -74 291 -120 96 -62 110 -43 102 142 -6 137 -23 207 -77 317
-78 159 -209 294 -382 395 -104 60 -135 85 -153 120 l-14 27 64 18 c181 49
316 194 331 355 18 185 -125 432 -368 636 -70 59 -96 74 -117 72 -25 -3 -26
-6 -32 -83 -6 -95 -12 -111 -50 -130 -39 -21 -83 -19 -104 5 -16 18 -16 27 -5
117 34 278 -72 664 -261 955 -50 76 -73 96 -85 77 -3 -6 -7 -59 -9 -117 -2
-83 -9 -126 -30 -191 -31 -96 -32 -95 -64 24 -72 263 -281 551 -509 703 -78
52 -87 35 -35 -70 67 -135 85 -204 90 -359 7 -177 -1 -194 -51 -105 -82 147
-225 307 -366 410 -74 54 -273 156 -306 156 -12 0 -24 -6 -27 -13z m624 -1771
c93 -17 195 -59 277 -114 34 -24 62 -45 62 -48 0 -3 -28 11 -62 30 -329 182
-745 91 -1298 -284 -147 -100 -332 -249 -325 -261 4 -5 14 -9 24 -9 10 0 32
-5 50 -11 l32 -11 -43 -36 c-77 -64 -368 -354 -462 -462 -194 -221 -354 -446
-486 -688 -66 -122 -78 -138 -143 -189 -39 -31 -101 -86 -139 -121 -37 -35
-68 -62 -68 -58 0 31 207 397 326 577 160 243 407 540 574 692 49 44 59 58 46
63 -9 3 -27 3 -41 0 -14 -4 -25 -2 -25 3 0 17 121 151 227 251 131 124 268
233 421 334 318 208 556 310 822 350 56 8 159 5 231 -8z m-341 -301 c0 -2 -16
-12 -35 -21 -50 -23 -111 -96 -130 -155 -13 -39 -15 -68 -10 -134 7 -80 6 -85
-17 -108 -13 -13 -46 -32 -73 -41 -97 -35 -193 -86 -210 -112 -9 -15 -19 -43
-22 -63 -7 -60 28 -105 132 -168 50 -30 103 -67 118 -81 46 -43 78 -106 84
-167 5 -50 4 -55 -14 -55 -11 0 -45 -13 -76 -30 -31 -16 -59 -30 -63 -30 -3 0
17 25 45 56 28 30 51 61 51 68 0 19 -110 121 -155 143 -22 11 -65 28 -95 37
-135 39 -182 111 -150 228 23 83 143 176 275 213 84 24 88 29 70 95 -35 132
-3 205 129 291 46 30 69 39 103 39 23 0 43 -2 43 -5z m357 -115 c72 -41 113
-111 113 -193 0 -212 -276 -306 -399 -137 -144 199 76 451 286 330z m1037
-263 c79 -37 144 -86 185 -141 19 -25 40 -46 46 -46 22 0 161 -72 220 -114
133 -96 256 -260 304 -407 11 -36 30 -169 24 -169 -2 0 -26 11 -54 25 -261
133 -714 214 -1211 218 l-238 2 0 45 c0 56 36 134 81 177 19 18 61 45 94 60
58 27 65 28 238 29 178 2 207 7 207 40 0 7 -9 22 -21 33 -25 23 -183 76 -255
86 l-52 7 12 30 c17 46 85 118 131 140 62 29 210 22 289 -15z m-2333 -416 c-6
-11 -66 -63 -133 -117 -185 -149 -347 -285 -508 -427 -79 -71 -146 -124 -148
-118 -6 19 109 169 208 270 157 160 349 304 503 377 84 39 91 40 78 15z m-28
-118 c-21 -27 -44 -55 -52 -63 -31 -32 -154 -203 -234 -326 -383 -586 -565
-1096 -598 -1677 -5 -100 -13 -198 -17 -217 l-8 -35 -16 41 c-26 65 -48 187
-54 302 -19 338 98 767 308 1135 74 129 208 329 292 437 138 177 388 450 412
450 3 0 -12 -21 -33 -47z m-53 -551 c0 -4 -99 -106 -220 -227 -121 -121 -220
-213 -220 -205 0 9 21 50 46 93 49 85 160 208 239 267 81 60 155 94 155 72z
m220 -106 c0 -2 -69 -63 -152 -137 -187 -164 -336 -312 -493 -488 -65 -74
-121 -129 -123 -122 -6 17 82 161 167 276 91 122 240 273 341 344 100 71 260
149 260 127z m1636 -353 c47 -61 272 -398 269 -402 -10 -10 -128 76 -182 131
-67 71 -106 139 -129 228 -22 88 -6 105 42 43z m-1905 -281 c-35 -104 -105
-266 -238 -547 -52 -110 -104 -221 -115 -247 -11 -27 -24 -48 -28 -48 -22 0
38 247 102 420 83 222 198 438 281 528 21 23 22 23 25 4 2 -11 -10 -61 -27
-110z"/>
<path d="M3749 4777 c-43 -29 -63 -84 -50 -134 13 -48 37 -71 83 -84 139 -37
219 138 99 218 -43 29 -89 29 -132 0z"/>
</g>
</svg>
